<svg xmlns="http://www.w3.org/2000/svg" viewBox="0 0 100 100" fill="none">
  <rect width="100" height="100" rx="20" fill="#1A1A1A"/>
  <path d="M75 52.5c-.3-7.3 4.2-12.3 12.5-16.2-4.7-6.8-11.8-7.8-17.5-8.2-7.5-.8-14.5 4.4-18.3 4.4-3.9 0-9.7-4.2-16-4.1-8.2.1-15.8 4.8-20 12.2-8.6 14.9-2.2 37 6.1 49.1 4.1 5.9 9 12.5 15.5 12.3 6.2-.3 8.6-4 16.1-4 7.5 0 9.6 4 16.2 3.9 6.7-.1 11-6.4 15-12.3 4.7-6.9 6.6-13.6 6.7-13.9-.1-.1-12.9-5-13-19.6zM62.5 19.3c3.4-4.2 5.7-9.9 5-15.7-4.8.2-10.7 3.2-14.2 7.3-3.1 3.6-5.8 9.4-5.1 14.9 5.4.4 10.9-2.7 14.3-6.5z" fill="#999"/>
</svg>
