<svg xmlns="http://www.w3.org/2000/svg" viewBox="0 0 100 100" fill="none">
  <rect width="100" height="100" rx="20" fill="#1A1A1A"/>
  <path d="M72 48c-.3-6.8 3.9-11.5 11.7-15.1-4.4-6.4-11-7.3-16.3-7.7-7-.7-13.6 4.1-17.1 4.1-3.6 0-9.1-3.9-15-3.8-7.7.1-14.8 4.5-18.7 11.4-8 13.9-2.1 34.5 5.7 45.8 3.8 5.5 8.4 11.7 14.5 11.5 5.8-.3 8-3.7 15-3.7 7 0 9 3.7 15.1 3.6 6.3-.1 10.3-6 14-11.5 4.4-6.4 6.2-12.7 6.3-13-.1-.1-12-4.6-12.2-18.3zM60.3 19.3c3.2-3.9 5.3-9.2 4.7-14.6-4.5.2-10 3-13.3 6.8-2.9 3.4-5.4 8.8-4.8 13.9 5 .4 10.2-2.5 13.4-6.1z" fill="#999"/>
</svg>
